HIERARCHY
ROOT character_B_root
{
	OFFSET 0.000000 0.000000 0.000000
	CHANNELS 6 Xposition Yposition Zposition Xrotation Yrotation Zrotation
	JOINT character_B_pelvis
	{
		OFFSET 0.000000 0.000000 0.000000
		CHANNELS 3 Xrotation Yrotation Zrotation
		JOINT character_B_spine
		{
			OFFSET -0.005949 0.551378 0.000000
			CHANNELS 3 Xrotation Yrotation Zrotation
			JOINT character_B_head
			{
				OFFSET -0.011221 0.241134 0.000000
				CHANNELS 3 Xrotation Yrotation Zrotation
				JOINT character_B_nose
				{
					OFFSET -0.004159 -0.142665 -0.000261
					CHANNELS 3 Xrotation Yrotation Zrotation
					End Site
					{
						OFFSET 0.000000 0.050000 0.000000
					}
				}
			}
			JOINT character_B_left_shoulder
			{
				OFFSET 0.093188 -0.066956 0.092540
				CHANNELS 3 Xrotation Yrotation Zrotation
				JOINT character_B_left_elbow
				{
					OFFSET 0.026481 -0.252143 -0.089385
					CHANNELS 3 Xrotation Yrotation Zrotation
					JOINT character_B_left_wrist
					{
						OFFSET -0.001396 -0.164778 -0.154831
						CHANNELS 3 Xrotation Yrotation Zrotation
						End Site
						{
							OFFSET 0.000000 0.050000 0.000000
						}
					}
				}
			}
			JOINT character_B_right_shoulder
			{
				OFFSET -0.052646 -0.054758 0.152841
				CHANNELS 3 Xrotation Yrotation Zrotation
				JOINT character_B_right_elbow
				{
					OFFSET -0.025750 -0.252567 -0.055740
					CHANNELS 3 Xrotation Yrotation Zrotation
					JOINT character_B_right_wrist
					{
						OFFSET 0.022565 -0.178373 -0.161123
						CHANNELS 3 Xrotation Yrotation Zrotation
						End Site
						{
							OFFSET 0.000000 0.050000 0.000000
						}
					}
				}
			}
		}
		JOINT character_B_left_hip
		{
			OFFSET 0.053047 -0.014449 0.105832
			CHANNELS 3 Xrotation Yrotation Zrotation
			JOINT character_B_left_knee
			{
				OFFSET 0.010852 -0.388560 0.128200
				CHANNELS 3 Xrotation Yrotation Zrotation
				JOINT character_B_left_ankle
				{
					OFFSET -0.005897 -0.374408 0.161260
					CHANNELS 3 Xrotation Yrotation Zrotation
					JOINT character_B_left_big_toe
					{
						OFFSET 0.012109 -0.098215 0.034452
						CHANNELS 3 Xrotation Yrotation Zrotation
						End Site
						{
							OFFSET 0.000000 0.050000 0.000000
						}
					}
					JOINT character_B_left_small_toe
					{
						OFFSET 0.041617 -0.095586 0.019459
						CHANNELS 3 Xrotation Yrotation Zrotation
						End Site
						{
							OFFSET 0.000000 0.050000 0.000000
						}
					}
					JOINT character_B_left_heel
					{
						OFFSET -0.014884 -0.052778 0.025198
						CHANNELS 3 Xrotation Yrotation Zrotation
						End Site
						{
							OFFSET 0.000000 0.050000 0.000000
						}
					}
				}
			}
		}
		JOINT character_B_right_hip
		{
			OFFSET -0.043381 -0.011457 0.270438
			CHANNELS 3 Xrotation Yrotation Zrotation
			JOINT character_B_right_knee
			{
				OFFSET 0.014721 -0.382947 0.164918
				CHANNELS 3 Xrotation Yrotation Zrotation
				JOINT character_B_right_ankle
				{
					OFFSET 0.029970 -0.363014 0.179744
					CHANNELS 3 Xrotation Yrotation Zrotation
					JOINT character_B_right_big_toe
					{
						OFFSET 0.007171 -0.100675 0.041990
						CHANNELS 3 Xrotation Yrotation Zrotation
						End Site
						{
							OFFSET 0.000000 0.050000 0.000000
						}
					}
					JOINT character_B_right_small_toe
					{
						OFFSET -0.022736 -0.093093 0.035638
						CHANNELS 3 Xrotation Yrotation Zrotation
						End Site
						{
							OFFSET 0.000000 0.050000 0.000000
						}
					}
					JOINT character_B_right_heel
					{
						OFFSET 0.012696 -0.052984 0.028899
						CHANNELS 3 Xrotation Yrotation Zrotation
						End Site
						{
							OFFSET 0.000000 0.050000 0.000000
						}
					}
				}
			}
		}
	}
}
MOTION
Frames: 5
Frame Time: 0.03333333
-1.823711 -0.194678 -1.621459 0.000000 0.000000 0.000000 1.437835 -0.341691 -0.196839 -15.113760 -8.068483 -18.377111 10.569939 11.977718 63.610874 0.000000 0.000000 -0.000000 -6.057965 9.999513 9.961067 2.546370 -16.350953 20.634951 0.000000 0.000000 -0.000000 -27.921280 4.587693 18.780909 -6.461872 -16.636997 1.697484 -0.000000 0.000000 0.000000 1.154674 1.307954 2.691111 -11.964200 0.927098 0.937015 -22.462904 -15.599595 26.734306 0.000000 0.000000 -0.000000 0.000000 0.000000 -0.000000 0.000000 0.000000 -0.000000 -6.909354 -0.240763 -0.696926 4.462572 -7.153919 -15.127580 101.769180 -0.309864 148.305490 -0.000000 0.000000 0.000000 -0.000000 0.000000 0.000000 -0.000000 0.000000 0.000000
-1.837237 -0.197676 -1.626625 0.000000 0.000000 0.000000 0.737247 0.151005 -0.019719 -14.734133 -8.766452 -18.495259 10.809143 12.271704 64.204705 -0.000000 0.000000 -0.000000 -5.714892 10.230158 10.078767 -0.337346 -15.864397 19.074173 0.000000 0.000000 -0.000000 -27.154899 5.761228 17.724020 -7.377652 -16.812347 2.283558 0.000000 0.000000 -0.000000 7.352703 0.782321 1.738894 -16.915683 1.161382 2.258031 -25.090851 -17.772640 25.682114 0.000000 0.000000 0.000000 0.000000 0.000000 0.000000 0.000000 0.000000 0.000000 -2.188051 0.025412 0.573192 -0.211492 -5.850718 -12.233747 107.427171 -17.766603 169.091111 0.000000 0.000000 0.000000 0.000000 0.000000 0.000000 0.000000 0.000000 0.000000
-1.848379 -0.200322 -1.630045 0.000000 0.000000 0.000000 0.138931 0.527468 0.145086 -14.396507 -9.388668 -18.420982 11.017329 12.547281 64.800529 -0.000000 0.000000 0.000000 -5.378610 10.313540 10.374186 -2.325629 -14.710537 17.231695 -0.000000 0.000000 0.000000 -26.441089 6.864687 16.728917 -7.996930 -17.087985 2.869954 -0.000000 0.000000 -0.000000 11.538603 0.232017 0.944680 -19.925509 1.366611 3.521655 -26.694261 -19.860181 24.886573 0.000000 0.000000 0.000000 0.000000 0.000000 0.000000 0.000000 0.000000 0.000000 3.038044 0.521559 1.891162 -4.715379 -4.127720 -8.623158 129.347290 -39.689566 -164.143841 0.000000 0.000000 0.000000 0.000000 0.000000 0.000000 0.000000 0.000000 0.000000
-1.861405 -0.200827 -1.632319 0.000000 0.000000 0.000000 -0.032950 0.819391 -0.002992 -14.129839 -9.848596 -17.933550 10.987552 12.576653 64.200460 0.000000 0.000000 -0.000000 -5.356910 10.164712 10.546143 -5.820604 -14.394297 15.685897 0.000000 0.000000 -0.000000 -25.638066 7.926634 15.361569 -8.730257 -17.671788 3.754695 -0.000000 0.000000 0.000000 14.040822 -0.518352 -0.082118 -20.438486 -0.990795 -1.832363 -23.342102 -10.768883 37.008068 -0.000000 0.000000 -0.000000 -0.000000 0.000000 -0.000000 -0.000000 0.000000 -0.000000 6.912168 1.110731 3.375487 -8.136315 -2.797518 -6.129042 160.918276 -44.615705 -135.504509 -0.000000 0.000000 -0.000000 -0.000000 0.000000 -0.000000 -0.000000 0.000000 -0.000000
-1.875173 -0.203656 -1.633809 0.000000 0.000000 0.000000 0.153041 0.920768 -0.281408 -14.253958 -10.176339 -17.539556 10.960578 12.694175 64.579744 -0.000000 0.000000 -0.000000 -5.008392 9.853121 11.470272 -7.347622 -13.707972 14.316764 0.000000 0.000000 0.000000 -24.384716 8.733638 14.585869 -9.801481 -18.008092 4.311790 -0.000000 0.000000 0.000000 15.356367 -0.694148 -0.175240 -22.471725 -1.204588 -2.009012 -20.514366 -3.009481 40.916443 0.000000 0.000000 -0.000000 0.000000 0.000000 -0.000000 0.000000 0.000000 -0.000000 8.225037 1.100250 3.552978 -9.467706 -4.713154 -10.055647 128.578210 -28.232643 -152.738874 0.000000 0.000000 -0.000000 0.000000 0.000000 -0.000000 0.000000 0.000000 -0.000000
